<?xml version="1.0" encoding="utf-8"?>
<!-- Generator: Adobe Illustrator 23.1.1, SVG Export Plug-In . SVG Version: 6.00 Build 0)  -->
<svg version="1.1" xmlns="http://www.w3.org/2000/svg" xmlns:xlink="http://www.w3.org/1999/xlink" x="0px" y="0px"
	 viewBox="0 0 80 80" style="enable-background:new 0 0 80 80;" xml:space="preserve">
<style type="text/css">
	.st0{fill:#FFFFFF;}
	.st1{display:none;}
	.st2{display:inline;}
	.st3{opacity:0.85;fill:#ED1C24;}
	.st4{font-family:'MarkerFelt-Wide';}
	.st5{font-size:2.4592px;}
	.st6{font-size:2.8973px;}
	.st7{font-size:2.8744px;}
</style>
<g id="Layer_1">
</g>
<g id="Layer_2">
	<g>
		<circle class="st0" cx="40" cy="40" r="28.5"/>
		<path d="M40,12c15.4,0,28,12.6,28,28S55.4,68,40,68S12,55.4,12,40S24.6,12,40,12 M40,11c-16,0-29,13-29,29s13,29,29,29
			s29-13,29-29S56,11,40,11L40,11z"/>
	</g>
</g>
<g id="Layer_3" class="st1">
	<g class="st2">
		<circle class="st0" cx="40" cy="40" r="26"/>
		<path d="M40,14.5c14.1,0,25.5,11.4,25.5,25.5S54.1,65.5,40,65.5S14.5,54.1,14.5,40S25.9,14.5,40,14.5 M40,13.5
			c-14.6,0-26.5,11.9-26.5,26.5S25.4,66.5,40,66.5S66.5,54.6,66.5,40S54.6,13.5,40,13.5L40,13.5z"/>
	</g>
</g>
<g id="Layer_4" class="st1">
	<g class="st2">
		<g>
			<polygon points="3.4,46.1 2.4,45 7.8,40 2.4,35 3.4,33.9 10,40 			"/>
		</g>
	</g>
</g>
<g id="Layer_5">
	<text transform="matrix(1.845 0 0 1 66.96 40.6611)" class="st3 st4 st5">X</text>
	<text transform="matrix(1.845 0 0 1 10.0005 40.6611)" class="st3 st4 st5">X</text>
	<text transform="matrix(1.5661 0 0 1 38.4802 12.667)" class="st3 st4 st6">X</text>
	<text transform="matrix(1.5786 0 0 1 38.48 69.6455)" class="st3 st4 st7">X</text>
</g>
</svg>
